<svg viewBox="0 0 1000 650" xmlns="http://www.w3.org/2000/svg" font-family="Inter, sans-serif">
  <rect width="1000" height="650" fill="#f6f3ee"/>
  <text x="500" y="35" text-anchor="middle" font-size="22" font-weight="700" fill="#1b2430">EduStream — Architecture Diagram</text>

  <!-- Users -->
  <rect x="40" y="70" width="140" height="50" rx="6" fill="#ffe3d6" stroke="#1b2430" stroke-width="2"/>
  <text x="110" y="100" text-anchor="middle" font-size="13" fill="#1b2430">Students / Teachers</text>

  <!-- ALB / Ingress -->
  <rect x="240" y="70" width="160" height="50" rx="6" fill="#fdfdfb" stroke="#1b2430" stroke-width="2"/>
  <text x="320" y="100" text-anchor="middle" font-size="13" fill="#1b2430">AWS ALB / Ingress</text>

  <!-- EKS cluster box -->
  <rect x="240" y="150" width="520" height="280" rx="6" fill="none" stroke="#1b2430" stroke-width="2" stroke-dasharray="6 4"/>
  <text x="500" y="175" text-anchor="middle" font-size="14" font-weight="700" fill="#1b2430">AWS EKS Cluster</text>

  <!-- App pods -->
  <rect x="270" y="195" width="180" height="60" rx="6" fill="#ffe3d6" stroke="#1b2430" stroke-width="2"/>
  <text x="360" y="220" text-anchor="middle" font-size="13" fill="#1b2430">EduStream Pods</text>
  <text x="360" y="238" text-anchor="middle" font-size="11" fill="#555">(Flask + Gunicorn, HPA 2-6)</text>

  <!-- Vault sidecar -->
  <rect x="480" y="195" width="160" height="60" rx="6" fill="#fdfdfb" stroke="#1b2430" stroke-width="2"/>
  <text x="560" y="220" text-anchor="middle" font-size="13" fill="#1b2430">Vault Agent</text>
  <text x="560" y="238" text-anchor="middle" font-size="11" fill="#555">Injects DB secrets</text>

  <!-- Monitoring -->
  <rect x="270" y="280" width="160" height="60" rx="6" fill="#fdfdfb" stroke="#1b2430" stroke-width="2"/>
  <text x="350" y="305" text-anchor="middle" font-size="13" fill="#1b2430">Prometheus</text>
  <text x="350" y="323" text-anchor="middle" font-size="11" fill="#555">Scrapes /metrics</text>

  <rect x="450" y="280" width="160" height="60" rx="6" fill="#fdfdfb" stroke="#1b2430" stroke-width="2"/>
  <text x="530" y="305" text-anchor="middle" font-size="13" fill="#1b2430">Grafana</text>
  <text x="530" y="323" text-anchor="middle" font-size="11" fill="#555">Dashboards &amp; alerts</text>

  <!-- Filebeat -->
  <rect x="270" y="365" width="160" height="50" rx="6" fill="#fdfdfb" stroke="#1b2430" stroke-width="2"/>
  <text x="350" y="395" text-anchor="middle" font-size="13" fill="#1b2430">Filebeat (DaemonSet)</text>

  <!-- ELK -->
  <rect x="820" y="195" width="150" height="60" rx="6" fill="#fdfdfb" stroke="#1b2430" stroke-width="2"/>
  <text x="895" y="220" text-anchor="middle" font-size="13" fill="#1b2430">Logstash</text>

  <rect x="820" y="280" width="150" height="60" rx="6" fill="#fdfdfb" stroke="#1b2430" stroke-width="2"/>
  <text x="895" y="305" text-anchor="middle" font-size="13" fill="#1b2430">Elasticsearch</text>

  <rect x="820" y="365" width="150" height="50" rx="6" fill="#fdfdfb" stroke="#1b2430" stroke-width="2"/>
  <text x="895" y="395" text-anchor="middle" font-size="13" fill="#1b2430">Kibana</text>

  <!-- Vault server -->
  <rect x="630" y="365" width="150" height="50" rx="6" fill="#ffe3d6" stroke="#1b2430" stroke-width="2"/>
  <text x="705" y="395" text-anchor="middle" font-size="13" fill="#1b2430">Vault Server</text>

  <!-- AWS data layer -->
  <rect x="240" y="470" width="520" height="140" rx="6" fill="none" stroke="#1b2430" stroke-width="2" stroke-dasharray="6 4"/>
  <text x="500" y="495" text-anchor="middle" font-size="14" font-weight="700" fill="#1b2430">AWS Data &amp; Storage Layer</text>

  <rect x="270" y="515" width="150" height="60" rx="6" fill="#fdfdfb" stroke="#1b2430" stroke-width="2"/>
  <text x="345" y="540" text-anchor="middle" font-size="13" fill="#1b2430">RDS MySQL</text>

  <rect x="450" y="515" width="150" height="60" rx="6" fill="#fdfdfb" stroke="#1b2430" stroke-width="2"/>
  <text x="525" y="540" text-anchor="middle" font-size="13" fill="#1b2430">S3 Bucket</text>
  <text x="525" y="558" text-anchor="middle" font-size="11" fill="#555">Recordings + DR replica</text>

  <rect x="630" y="515" width="150" height="60" rx="6" fill="#fdfdfb" stroke="#1b2430" stroke-width="2"/>
  <text x="705" y="540" text-anchor="middle" font-size="13" fill="#1b2430">CloudWatch</text>
  <text x="705" y="558" text-anchor="middle" font-size="11" fill="#555">Logs &amp; alarms</text>

  <!-- arrows -->
  <line x1="180" y1="95" x2="240" y2="95" stroke="#1b2430" stroke-width="2" marker-end="url(#arrow)"/>
  <line x1="320" y1="120" x2="320" y2="195" stroke="#1b2430" stroke-width="2" marker-end="url(#arrow)"/>
  <line x1="450" y1="225" x2="480" y2="225" stroke="#1b2430" stroke-width="2" marker-end="url(#arrow)"/>
  <line x1="350" y1="255" x2="350" y2="280" stroke="#1b2430" stroke-width="2" marker-end="url(#arrow)"/>
  <line x1="350" y1="340" x2="350" y2="365" stroke="#1b2430" stroke-width="2" marker-end="url(#arrow)"/>
  <line x1="430" y1="390" x2="820" y2="225" stroke="#1b2430" stroke-width="2" marker-end="url(#arrow)"/>
  <line x1="895" y1="255" x2="895" y2="280" stroke="#1b2430" stroke-width="2" marker-end="url(#arrow)"/>
  <line x1="895" y1="340" x2="895" y2="365" stroke="#1b2430" stroke-width="2" marker-end="url(#arrow)"/>
  <line x1="560" y1="255" x2="700" y2="365" stroke="#1b2430" stroke-width="2" marker-end="url(#arrow)"/>
  <line x1="360" y1="430" x2="345" y2="515" stroke="#1b2430" stroke-width="2" marker-end="url(#arrow)"/>
  <line x1="500" y1="430" x2="525" y2="515" stroke="#1b2430" stroke-width="2" marker-end="url(#arrow)"/>
  <line x1="640" y1="430" x2="705" y2="515" stroke="#1b2430" stroke-width="2" marker-end="url(#arrow)"/>

  <defs>
    <marker id="arrow" markerWidth="10" markerHeight="10" refX="8" refY="3" orient="auto" markerUnits="strokeWidth">
      <path d="M0,0 L8,3 L0,6 Z" fill="#1b2430"/>
    </marker>
  </defs>
</svg>
